<mxfile host="app.diagrams.net" agent="Mozilla/5.0 (X11; Linux x86_64; rv:133.0) Gecko/20100101 Firefox/133.0" version="26.0.4">
  <diagram name="Page-1" id="ORZE-tJU5Dqh-zddwmsB">
    <mxGraphModel dx="2269" dy="1587" grid="1" gridSize="10" guides="1" tooltips="1" connect="1" arrows="1" fold="1" page="1" pageScale="1" pageWidth="850" pageHeight="1100" math="0" shadow="0">
      <root>
        <mxCell id="0" />
        <mxCell id="1" parent="0" />
        <mxCell id="qTmjTwdP_fztRpD7uorw-40" style="edgeStyle=orthogonalEdgeStyle;rounded=0;orthogonalLoop=1;jettySize=auto;html=1;exitX=1;exitY=0.5;exitDx=0;exitDy=0;entryX=0;entryY=0.5;entryDx=0;entryDy=0;" edge="1" parent="1" source="qTmjTwdP_fztRpD7uorw-12" target="qTmjTwdP_fztRpD7uorw-39">
          <mxGeometry relative="1" as="geometry">
            <Array as="points">
              <mxPoint x="-10" y="400" />
              <mxPoint x="-10" y="550" />
            </Array>
          </mxGeometry>
        </mxCell>
        <mxCell id="qTmjTwdP_fztRpD7uorw-12" value="User" style="rounded=1;whiteSpace=wrap;html=1;" vertex="1" parent="1">
          <mxGeometry x="-150" y="370" width="120" height="60" as="geometry" />
        </mxCell>
        <mxCell id="qTmjTwdP_fztRpD7uorw-27" style="edgeStyle=orthogonalEdgeStyle;rounded=0;orthogonalLoop=1;jettySize=auto;html=1;exitX=0.5;exitY=0;exitDx=0;exitDy=0;entryX=0.5;entryY=1;entryDx=0;entryDy=0;" edge="1" parent="1" source="qTmjTwdP_fztRpD7uorw-13" target="qTmjTwdP_fztRpD7uorw-17">
          <mxGeometry relative="1" as="geometry" />
        </mxCell>
        <mxCell id="qTmjTwdP_fztRpD7uorw-54" style="edgeStyle=orthogonalEdgeStyle;rounded=0;orthogonalLoop=1;jettySize=auto;html=1;exitX=0.5;exitY=1;exitDx=0;exitDy=0;entryX=0.5;entryY=0;entryDx=0;entryDy=0;" edge="1" parent="1" source="qTmjTwdP_fztRpD7uorw-13" target="qTmjTwdP_fztRpD7uorw-42">
          <mxGeometry relative="1" as="geometry" />
        </mxCell>
        <mxCell id="qTmjTwdP_fztRpD7uorw-13" value="Nginx" style="rounded=1;whiteSpace=wrap;html=1;" vertex="1" parent="1">
          <mxGeometry x="200" y="520" width="120" height="60" as="geometry" />
        </mxCell>
        <mxCell id="qTmjTwdP_fztRpD7uorw-26" style="edgeStyle=orthogonalEdgeStyle;rounded=0;orthogonalLoop=1;jettySize=auto;html=1;exitX=0.5;exitY=0;exitDx=0;exitDy=0;entryX=0.5;entryY=1;entryDx=0;entryDy=0;" edge="1" parent="1" source="qTmjTwdP_fztRpD7uorw-17" target="qTmjTwdP_fztRpD7uorw-25">
          <mxGeometry relative="1" as="geometry" />
        </mxCell>
        <mxCell id="qTmjTwdP_fztRpD7uorw-17" value="&lt;div&gt;Html/Css/Js&lt;br&gt;&lt;/div&gt;" style="rounded=1;whiteSpace=wrap;html=1;" vertex="1" parent="1">
          <mxGeometry x="200" y="380" width="120" height="60" as="geometry" />
        </mxCell>
        <mxCell id="qTmjTwdP_fztRpD7uorw-28" style="edgeStyle=orthogonalEdgeStyle;rounded=0;orthogonalLoop=1;jettySize=auto;html=1;exitX=0;exitY=0.5;exitDx=0;exitDy=0;entryX=1;entryY=0.5;entryDx=0;entryDy=0;" edge="1" parent="1" source="qTmjTwdP_fztRpD7uorw-25" target="qTmjTwdP_fztRpD7uorw-31">
          <mxGeometry relative="1" as="geometry">
            <mxPoint x="110" y="290" as="targetPoint" />
          </mxGeometry>
        </mxCell>
        <mxCell id="qTmjTwdP_fztRpD7uorw-33" style="edgeStyle=orthogonalEdgeStyle;rounded=0;orthogonalLoop=1;jettySize=auto;html=1;exitX=1;exitY=0.5;exitDx=0;exitDy=0;entryX=0;entryY=0.5;entryDx=0;entryDy=0;" edge="1" parent="1" source="qTmjTwdP_fztRpD7uorw-25" target="qTmjTwdP_fztRpD7uorw-30">
          <mxGeometry relative="1" as="geometry" />
        </mxCell>
        <mxCell id="qTmjTwdP_fztRpD7uorw-25" value="Dynamic content needed ?" style="rounded=1;whiteSpace=wrap;html=1;" vertex="1" parent="1">
          <mxGeometry x="200" y="260" width="120" height="60" as="geometry" />
        </mxCell>
        <mxCell id="qTmjTwdP_fztRpD7uorw-36" style="edgeStyle=orthogonalEdgeStyle;rounded=0;orthogonalLoop=1;jettySize=auto;html=1;entryX=0.5;entryY=0;entryDx=0;entryDy=0;" edge="1" parent="1" source="qTmjTwdP_fztRpD7uorw-30" target="qTmjTwdP_fztRpD7uorw-35">
          <mxGeometry relative="1" as="geometry" />
        </mxCell>
        <mxCell id="qTmjTwdP_fztRpD7uorw-30" value="Yes" style="ellipse;whiteSpace=wrap;html=1;" vertex="1" parent="1">
          <mxGeometry x="445" y="260" width="60" height="60" as="geometry" />
        </mxCell>
        <mxCell id="qTmjTwdP_fztRpD7uorw-38" style="edgeStyle=orthogonalEdgeStyle;rounded=0;orthogonalLoop=1;jettySize=auto;html=1;exitX=0;exitY=0.5;exitDx=0;exitDy=0;entryX=0.5;entryY=0;entryDx=0;entryDy=0;" edge="1" parent="1" source="qTmjTwdP_fztRpD7uorw-31" target="qTmjTwdP_fztRpD7uorw-12">
          <mxGeometry relative="1" as="geometry" />
        </mxCell>
        <mxCell id="qTmjTwdP_fztRpD7uorw-31" value="No" style="ellipse;whiteSpace=wrap;html=1;" vertex="1" parent="1">
          <mxGeometry x="20" y="260" width="60" height="60" as="geometry" />
        </mxCell>
        <mxCell id="qTmjTwdP_fztRpD7uorw-53" style="edgeStyle=orthogonalEdgeStyle;rounded=0;orthogonalLoop=1;jettySize=auto;html=1;exitX=0.5;exitY=1;exitDx=0;exitDy=0;entryX=1;entryY=0.5;entryDx=0;entryDy=0;" edge="1" parent="1" source="qTmjTwdP_fztRpD7uorw-35" target="qTmjTwdP_fztRpD7uorw-13">
          <mxGeometry relative="1" as="geometry" />
        </mxCell>
        <mxCell id="qTmjTwdP_fztRpD7uorw-35" value="Js fetch the request to nginx (url=&#39;https://.../api/...&#39;)" style="rounded=1;whiteSpace=wrap;html=1;" vertex="1" parent="1">
          <mxGeometry x="390" y="380" width="170" height="60" as="geometry" />
        </mxCell>
        <mxCell id="qTmjTwdP_fztRpD7uorw-41" style="edgeStyle=orthogonalEdgeStyle;rounded=0;orthogonalLoop=1;jettySize=auto;html=1;exitX=1;exitY=0.5;exitDx=0;exitDy=0;entryX=0;entryY=0.5;entryDx=0;entryDy=0;" edge="1" parent="1" source="qTmjTwdP_fztRpD7uorw-39" target="qTmjTwdP_fztRpD7uorw-13">
          <mxGeometry relative="1" as="geometry" />
        </mxCell>
        <mxCell id="qTmjTwdP_fztRpD7uorw-39" value="Get request (localhost)" style="rounded=1;whiteSpace=wrap;html=1;" vertex="1" parent="1">
          <mxGeometry x="10" y="520" width="120" height="60" as="geometry" />
        </mxCell>
        <mxCell id="qTmjTwdP_fztRpD7uorw-47" style="edgeStyle=orthogonalEdgeStyle;rounded=0;orthogonalLoop=1;jettySize=auto;html=1;exitX=1;exitY=0.5;exitDx=0;exitDy=0;" edge="1" parent="1" source="qTmjTwdP_fztRpD7uorw-42" target="qTmjTwdP_fztRpD7uorw-46">
          <mxGeometry relative="1" as="geometry" />
        </mxCell>
        <mxCell id="qTmjTwdP_fztRpD7uorw-42" value="/api/ request" style="rounded=1;whiteSpace=wrap;html=1;" vertex="1" parent="1">
          <mxGeometry x="200" y="680" width="120" height="60" as="geometry" />
        </mxCell>
        <mxCell id="qTmjTwdP_fztRpD7uorw-46" value="Django view" style="rounded=1;whiteSpace=wrap;html=1;" vertex="1" parent="1">
          <mxGeometry x="440" y="680" width="120" height="60" as="geometry" />
        </mxCell>
        <mxCell id="qTmjTwdP_fztRpD7uorw-52" style="edgeStyle=orthogonalEdgeStyle;rounded=0;orthogonalLoop=1;jettySize=auto;html=1;exitX=1;exitY=0.5;exitDx=0;exitDy=0;entryX=0;entryY=0.5;entryDx=0;entryDy=0;" edge="1" parent="1" source="qTmjTwdP_fztRpD7uorw-49" target="qTmjTwdP_fztRpD7uorw-17">
          <mxGeometry relative="1" as="geometry" />
        </mxCell>
        <mxCell id="qTmjTwdP_fztRpD7uorw-49" value="User interaction (SPA)" style="rounded=1;whiteSpace=wrap;html=1;" vertex="1" parent="1">
          <mxGeometry x="10" y="380" width="120" height="60" as="geometry" />
        </mxCell>
        <mxCell id="qTmjTwdP_fztRpD7uorw-51" style="edgeStyle=orthogonalEdgeStyle;rounded=0;orthogonalLoop=1;jettySize=auto;html=1;exitX=1;exitY=0.5;exitDx=0;exitDy=0;entryX=-0.008;entryY=0.383;entryDx=0;entryDy=0;entryPerimeter=0;" edge="1" parent="1" source="qTmjTwdP_fztRpD7uorw-12" target="qTmjTwdP_fztRpD7uorw-49">
          <mxGeometry relative="1" as="geometry" />
        </mxCell>
      </root>
    </mxGraphModel>
  </diagram>
</mxfile>
